<svg xmlns="http://www.w3.org/2000/svg" xmlns:xlink="http://www.w3.org/1999/xlink" xmlns:a="http://ns.adobe.com/AdobeSVGViewerExtensions/3.0/" version="1.1" x="0px" y="0px" viewBox="-0.697 -0.901 100 125" enable-background="new -0.697 -0.901 100 100" xml:space="preserve"><path d="M43.234,17.659c-5.92,0-11.87,1.438-17.209,4.156l-1.227,0.625l50.966,50.946l0.625-1.228  c7.408-14.559,4.67-32.056-6.813-43.538C62.508,21.552,53.152,17.659,43.234,17.659z M75.211,70.006L28.179,22.993  c4.73-2.186,9.906-3.334,15.055-3.334c9.385,0,18.237,3.686,24.928,10.376C78.705,40.578,81.459,56.479,75.211,70.006z"/><path d="M81.418,16.78C70.598,5.959,56.369,0,41.355,0c-14.936,0-29.12,5.959-39.94,16.78L0,18.194l80.004,80.003l1.414-1.414  c10.896-10.896,16.855-25.18,16.779-40.221C98.123,41.653,92.162,27.525,81.418,16.78z M89.658,59.959  c1.467,0.159,2.934,0.318,4.4,0.478c-0.154,2.231-0.449,4.438-0.889,6.612c-1.471-0.408-2.941-0.816-4.412-1.226  c-1.119-0.311-1.596,1.426-0.479,1.736c1.506,0.418,3.01,0.836,4.514,1.253c-0.5,2.095-1.139,4.151-1.896,6.167  c-1.381-0.648-2.764-1.297-4.145-1.946c-1.045-0.49-1.959,1.062-0.908,1.555c1.457,0.685,2.916,1.369,4.373,2.054  c-0.838,2.015-1.803,3.979-2.896,5.887c-1.375-0.972-2.752-1.943-4.129-2.915c-0.949-0.671-1.848,0.891-0.908,1.555  c1.377,0.972,2.754,1.944,4.131,2.916c-1.842,2.976-3.986,5.802-6.436,8.432L43.466,56.004c1.199-1.199,2.398-2.399,3.598-3.599  c0.821-0.822-0.451-2.095-1.272-1.273c-1.199,1.2-2.398,2.399-3.598,3.6L5.682,18.22c2.629-2.449,5.458-4.592,8.435-6.433  c0.971,1.375,1.942,2.751,2.914,4.127c0.664,0.94,2.226,0.042,1.555-0.908c-0.977-1.383-1.953-2.766-2.929-4.148  c1.908-1.094,3.879-2.05,5.894-2.889c0.687,1.463,1.374,2.924,2.06,4.387c0.493,1.05,2.045,0.135,1.555-0.908  c-0.648-1.38-1.295-2.76-1.943-4.139c2.015-0.758,4.071-1.398,6.166-1.898c0.417,1.502,0.834,3.006,1.251,4.508  c0.311,1.117,2.047,0.643,1.736-0.479c-0.408-1.471-0.816-2.941-1.226-4.412c2.173-0.439,4.383-0.728,6.614-0.885  c0.158,1.466,0.316,2.932,0.477,4.398c0.123,1.141,1.924,1.152,1.799,0c-0.162-1.499-0.324-2.997-0.486-4.495  C40.152,4.024,40.752,4,41.355,4c1.664,0,3.316,0.082,4.955,0.238c-0.092,1.49-0.183,2.981-0.273,4.473  c-0.071,1.159,1.729,1.152,1.799,0c0.088-1.42,0.174-2.84,0.261-4.26c2.063,0.27,4.099,0.654,6.103,1.166  c-0.346,1.512-0.689,3.022-1.033,4.533c-0.258,1.131,1.479,1.61,1.736,0.479c0.344-1.512,0.688-3.023,1.033-4.535  c2.41,0.707,4.766,1.588,7.053,2.638c-0.625,1.37-1.248,2.739-1.873,4.11c-0.479,1.047,1.072,1.963,1.555,0.908  c0.643-1.412,1.287-2.824,1.93-4.236c2.119,1.062,4.172,2.277,6.152,3.627c-0.953,1.343-1.904,2.687-2.857,4.03  c-0.672,0.949,0.891,1.848,1.555,0.908c0.922-1.301,1.846-2.604,2.768-3.904c1.994,1.459,3.91,3.059,5.721,4.813  c-1.248,1.248-2.496,2.497-3.744,3.746c-0.822,0.82,0.451,2.094,1.273,1.271c1.248-1.248,2.496-2.496,3.744-3.745  c1.754,1.812,3.365,3.718,4.828,5.712c-1.307,0.926-2.613,1.852-3.92,2.777c-0.939,0.666-0.041,2.227,0.908,1.555  c1.35-0.957,2.699-1.914,4.051-2.871c1.352,1.98,2.553,4.04,3.613,6.162c-1.414,0.645-2.828,1.288-4.244,1.933  c-1.055,0.481-0.139,2.032,0.908,1.555c1.371-0.624,2.74-1.247,4.109-1.872c1.049,2.288,1.93,4.644,2.635,7.055  c-1.51,0.344-3.021,0.688-4.531,1.033c-1.133,0.258-0.652,1.992,0.479,1.734c1.512-0.344,3.025-0.689,4.539-1.034  c0.512,2.003,0.891,4.041,1.16,6.103c-1.42,0.087-2.84,0.174-4.26,0.261c-1.152,0.071-1.16,1.871,0,1.801  c1.49-0.092,2.979-0.183,4.467-0.273c0.148,1.554,0.236,3.118,0.244,4.693c0.004,0.69-0.014,1.378-0.039,2.064  c-1.5-0.163-3-0.325-4.5-0.488C88.504,58.033,88.516,59.835,89.658,59.959z"/></svg>